<svg width="32" height="32" viewBox="0 0 32 32" fill="none" xmlns="http://www.w3.org/2000/svg">
<path d="M17.8177 1.94114C16.6539 1.45904 15.3461 1.45904 14.1823 1.94114L7.34423 4.77354C6.18034 5.25564 5.25564 6.18034 4.77355 7.34422L1.94114 14.1823C1.45904 15.3461 1.45904 16.6539 1.94114 17.8177L4.77354 24.6558C5.25564 25.8197 6.18034 26.7444 7.34422 27.2265L14.1823 30.0589C15.3461 30.541 16.6539 30.541 17.8177 30.0589L24.6558 27.2265C25.8197 26.7444 26.7444 25.8197 27.2265 24.6558L30.0589 17.8177C30.541 16.6539 30.541 15.3461 30.0589 14.1823L27.2265 7.34423C26.7444 6.18034 25.8197 5.25564 24.6558 4.77355L17.8177 1.94114Z" fill="#8B6AEE" stroke="#FAFAFA" stroke-width="1.5"/>
<path d="M14.5 5.86603C15.4282 5.33013 16.5718 5.33013 17.5 5.86603L24.0263 9.63397C24.9545 10.1699 25.5263 11.1603 25.5263 12.2321V19.7679C25.5263 20.8397 24.9545 21.8301 24.0263 22.366L17.5 26.134C16.5718 26.6699 15.4282 26.6699 14.5 26.134L7.97372 22.366C7.04552 21.8301 6.47372 20.8397 6.47372 19.7679V12.2321C6.47372 11.1603 7.04552 10.1699 7.97372 9.63397L14.5 5.86603Z" fill="#A58CF2"/>
<path d="M14.5858 9.41421C15.3668 8.63316 16.6332 8.63317 17.4142 9.41421L22.5858 14.5858C23.3668 15.3668 23.3668 16.6332 22.5858 17.4142L17.4142 22.5858C16.6332 23.3668 15.3668 23.3668 14.5858 22.5858L9.41421 17.4142C8.63316 16.6332 8.63317 15.3668 9.41421 14.5858L14.5858 9.41421Z" fill="#C1AFF6"/>
<path d="M15.134 12.5C15.5189 11.8333 16.4811 11.8333 16.866 12.5L19.4641 17C19.849 17.6667 19.3679 18.5 18.5981 18.5H13.4019C12.6321 18.5 12.151 17.6667 12.5359 17L15.134 12.5Z" fill="#DBD1FA"/>
</svg>
